<svg width="165" height="22" viewBox="0 0 165 22" fill="none" xmlns="http://www.w3.org/2000/svg">
<path d="M21.8223 22H18.0137V16.8438H4.625V22H0.816406V11.4971C0.816406 9.96387 1.08008 8.55273 1.60742 7.26367C2.13477 5.97461 2.86719 4.86621 3.80469 3.93848C4.74219 3.01074 5.85059 2.28809 7.12988 1.77051C8.40918 1.25293 9.80566 0.994141 11.3193 0.994141H19.9033C20.167 0.994141 20.416 1.04297 20.6504 1.14062C20.8848 1.23828 21.0898 1.375 21.2656 1.55078C21.4414 1.72656 21.5781 1.93164 21.6758 2.16602C21.7734 2.40039 21.8223 2.64941 21.8223 2.91309V22ZM4.625 13.0352H18.0137V4.80273H11.3193C11.2021 4.80273 10.9531 4.82227 10.5723 4.86133C10.2012 4.89062 9.7666 4.97363 9.26855 5.11035C8.78027 5.24707 8.2627 5.45703 7.71582 5.74023C7.16895 6.02344 6.66602 6.41406 6.20703 6.91211C5.74805 7.41016 5.36719 8.03516 5.06445 8.78711C4.77148 9.5293 4.625 10.4326 4.625 11.4971V13.0352ZM39.4883 13.2109H25.748V9.7832H39.4883V13.2109ZM64.3613 13.2109C64.3613 14.4902 64.1367 15.667 63.6875 16.7412C63.248 17.8154 62.6377 18.7432 61.8564 19.5244C61.0752 20.2959 60.1475 20.9014 59.0732 21.3408C57.999 21.7803 56.832 22 55.5723 22H45.2891C45.0156 22 44.7617 21.9512 44.5273 21.8535C44.293 21.7559 44.0879 21.624 43.9121 21.458C43.7461 21.2822 43.6143 21.0771 43.5166 20.8428C43.4189 20.6084 43.3701 20.3545 43.3701 20.0811V2.91309C43.3701 2.64941 43.4189 2.40039 43.5166 2.16602C43.6143 1.93164 43.7461 1.72656 43.9121 1.55078C44.0879 1.375 44.293 1.23828 44.5273 1.14062C44.7617 1.04297 45.0156 0.994141 45.2891 0.994141H55.5723C56.832 0.994141 57.999 1.21387 59.0732 1.65332C60.1475 2.09277 61.0752 2.70313 61.8564 3.48438C62.6377 4.25586 63.248 5.18359 63.6875 6.26758C64.1367 7.3418 64.3613 8.51367 64.3613 9.7832V13.2109ZM60.5527 9.7832C60.5527 9.04102 60.4307 8.3623 60.1865 7.74707C59.9521 7.13184 59.6152 6.60937 59.1758 6.17969C58.7363 5.74023 58.209 5.40332 57.5938 5.16895C56.9883 4.9248 56.3145 4.80273 55.5723 4.80273H47.1787V18.1914H55.5723C56.3145 18.1914 56.9883 18.0742 57.5938 17.8398C58.209 17.5957 58.7363 17.2588 59.1758 16.8291C59.6152 16.3896 59.9521 15.8672 60.1865 15.2617C60.4307 14.6465 60.5527 13.9629 60.5527 13.2109V9.7832ZM71.9346 22H68.126V0.994141H71.9346V22ZM93.6582 13.416H81.6318V9.57812H93.6582V13.416ZM95.3721 22H81.6318C81.1045 22 80.5283 21.9072 79.9033 21.7217C79.2783 21.5361 78.6973 21.2334 78.1602 20.8135C77.6328 20.3838 77.1885 19.832 76.8271 19.1582C76.4756 18.4746 76.2998 17.6396 76.2998 16.6533V2.91309C76.2998 2.64941 76.3486 2.40039 76.4463 2.16602C76.5439 1.93164 76.6758 1.72656 76.8418 1.55078C77.0176 1.375 77.2227 1.23828 77.457 1.14062C77.6914 1.04297 77.9453 0.994141 78.2188 0.994141H95.3721V4.80273H80.1084V16.6533C80.1084 17.1514 80.2402 17.5322 80.5039 17.7959C80.7676 18.0596 81.1533 18.1914 81.6611 18.1914H95.3721V22ZM119.161 15.8184C119.161 16.5703 119.063 17.249 118.868 17.8545C118.683 18.4502 118.434 18.9775 118.121 19.4365C117.809 19.8955 117.442 20.2861 117.022 20.6084C116.603 20.9307 116.168 21.1943 115.719 21.3994C115.27 21.6045 114.811 21.7559 114.342 21.8535C113.883 21.9512 113.448 22 113.038 22H98.3457V18.1914H113.038C113.771 18.1914 114.337 17.9766 114.737 17.5469C115.147 17.1172 115.353 16.541 115.353 15.8184C115.353 15.4668 115.299 15.1445 115.191 14.8516C115.084 14.5586 114.928 14.3047 114.723 14.0898C114.527 13.875 114.283 13.709 113.99 13.5918C113.707 13.4746 113.39 13.416 113.038 13.416H104.278C103.663 13.416 102.999 13.3086 102.286 13.0938C101.573 12.8691 100.909 12.5127 100.294 12.0244C99.6885 11.5361 99.1807 10.8965 98.7705 10.1055C98.3701 9.31445 98.1699 8.34766 98.1699 7.20508C98.1699 6.0625 98.3701 5.10059 98.7705 4.31934C99.1807 3.52832 99.6885 2.88867 100.294 2.40039C100.909 1.90234 101.573 1.5459 102.286 1.33105C102.999 1.10645 103.663 0.994141 104.278 0.994141H117.242V4.80273H104.278C103.556 4.80273 102.989 5.02246 102.579 5.46191C102.179 5.90137 101.979 6.48242 101.979 7.20508C101.979 7.9375 102.179 8.51855 102.579 8.94824C102.989 9.36816 103.556 9.57812 104.278 9.57812H113.038H113.067C113.478 9.58789 113.912 9.64648 114.371 9.75391C114.83 9.85156 115.284 10.0078 115.733 10.2227C116.192 10.4375 116.627 10.7109 117.037 11.043C117.447 11.3652 117.809 11.7559 118.121 12.2148C118.443 12.6738 118.697 13.2012 118.883 13.7969C119.068 14.3926 119.161 15.0664 119.161 15.8184ZM139.596 13.416H127.569V9.57812H139.596V13.416ZM141.31 22H127.569C127.042 22 126.466 21.9072 125.841 21.7217C125.216 21.5361 124.635 21.2334 124.098 20.8135C123.57 20.3838 123.126 19.832 122.765 19.1582C122.413 18.4746 122.237 17.6396 122.237 16.6533V2.91309C122.237 2.64941 122.286 2.40039 122.384 2.16602C122.481 1.93164 122.613 1.72656 122.779 1.55078C122.955 1.375 123.16 1.23828 123.395 1.14062C123.629 1.04297 123.883 0.994141 124.156 0.994141H141.31V4.80273H126.046V16.6533C126.046 17.1514 126.178 17.5322 126.441 17.7959C126.705 18.0596 127.091 18.1914 127.599 18.1914H141.31V22ZM164.293 22H146.92C146.646 22 146.393 21.9512 146.158 21.8535C145.924 21.7559 145.719 21.624 145.543 21.458C145.377 21.2822 145.245 21.0771 145.147 20.8428C145.05 20.6084 145.001 20.3545 145.001 20.0811V0.994141H148.81V18.1914H164.293V22Z" fill="white"/>
</svg>
